<?xml version="1.0" encoding="UTF-8" standalone="no"?>
<!-- Created with Inkscape (http://www.inkscape.org/) -->

<svg
   xmlns:ns0="http://www.iki.fi/pav/software/textext/"
   xmlns:dc="http://purl.org/dc/elements/1.1/"
   xmlns:cc="http://creativecommons.org/ns#"
   xmlns:rdf="http://www.w3.org/1999/02/22-rdf-syntax-ns#"
   xmlns:svg="http://www.w3.org/2000/svg"
   xmlns="http://www.w3.org/2000/svg"
   xmlns:xlink="http://www.w3.org/1999/xlink"
   xmlns:sodipodi="http://sodipodi.sourceforge.net/DTD/sodipodi-0.dtd"
   xmlns:inkscape="http://www.inkscape.org/namespaces/inkscape"
   width="210mm"
   height="297mm"
   viewBox="0 0 210 297"
   version="1.1"
   id="svg8"
   inkscape:version="0.92.2 5c3e80d, 2017-08-06"
   sodipodi:docname="TransferMatrix.svg"
   inkscape:export-filename="/Volumes/GoogleDrive/Shared drives/ProjectoReflectancia/Notas/JPires/Pictures/TransferMatrix.png"
   inkscape:export-xdpi="96"
   inkscape:export-ydpi="96">
  <sodipodi:namedview
     id="base"
     pagecolor="#ffffff"
     bordercolor="#666666"
     borderopacity="1.0"
     inkscape:pageopacity="0.0"
     inkscape:pageshadow="2"
     inkscape:zoom="3.0659709"
     inkscape:cx="185.41532"
     inkscape:cy="589.24222"
     inkscape:document-units="mm"
     inkscape:current-layer="layer1"
     showgrid="false"
     inkscape:window-width="1280"
     inkscape:window-height="712"
     inkscape:window-x="0"
     inkscape:window-y="1"
     inkscape:window-maximized="1" />
  <defs
     id="defs2">
    <marker
       inkscape:isstock="true"
       style="overflow:visible"
       id="marker4245"
       refX="0.0"
       refY="0.0"
       orient="auto"
       inkscape:stockid="Arrow1Lstart">
      <path
         transform="scale(0.8) translate(12.5,0)"
         style="fill-rule:evenodd;stroke:#ff0000;stroke-width:1pt;stroke-opacity:1;fill:#d40000;fill-opacity:1"
         d="M 0.0,0.0 L 5.0,-5.0 L -12.5,0.0 L 5.0,5.0 L 0.0,0.0 z "
         id="path4243" />
    </marker>
    <marker
       inkscape:isstock="true"
       style="overflow:visible;"
       id="marker4051"
       refX="0.0"
       refY="0.0"
       orient="auto"
       inkscape:stockid="Arrow1Lend">
      <path
         transform="scale(0.8) rotate(180) translate(12.5,0)"
         style="fill-rule:evenodd;stroke:#008300;stroke-width:1pt;stroke-opacity:1;fill:#008000;fill-opacity:1"
         d="M 0.0,0.0 L 5.0,-5.0 L -12.5,0.0 L 5.0,5.0 L 0.0,0.0 z "
         id="path4049" />
    </marker>
    <marker
       inkscape:isstock="true"
       style="overflow:visible"
       id="marker3603"
       refX="0.0"
       refY="0.0"
       orient="auto"
       inkscape:stockid="Arrow1Lstart">
      <path
         transform="scale(0.8) translate(12.5,0)"
         style="fill-rule:evenodd;stroke:#000000;stroke-width:1pt;stroke-opacity:1;fill:#000000;fill-opacity:1"
         d="M 0.0,0.0 L 5.0,-5.0 L -12.5,0.0 L 5.0,5.0 L 0.0,0.0 z "
         id="path3601" />
    </marker>
    <marker
       inkscape:stockid="Arrow1Lstart"
       orient="auto"
       refY="0.0"
       refX="0.0"
       id="Arrow1Lstart"
       style="overflow:visible"
       inkscape:isstock="true"
       inkscape:collect="always">
      <path
         id="path3053"
         d="M 0.0,0.0 L 5.0,-5.0 L -12.5,0.0 L 5.0,5.0 L 0.0,0.0 z "
         style="fill-rule:evenodd;stroke:#0000ff;stroke-width:1pt;stroke-opacity:1;fill:#0000ff;fill-opacity:1"
         transform="scale(0.8) translate(12.5,0)" />
    </marker>
    <marker
       inkscape:isstock="true"
       style="overflow:visible;"
       id="marker3465"
       refX="0.0"
       refY="0.0"
       orient="auto"
       inkscape:stockid="Arrow1Lend">
      <path
         transform="scale(0.8) rotate(180) translate(12.5,0)"
         style="fill-rule:evenodd;stroke:#000000;stroke-width:1pt;stroke-opacity:1;fill:#000000;fill-opacity:1"
         d="M 0.0,0.0 L 5.0,-5.0 L -12.5,0.0 L 5.0,5.0 L 0.0,0.0 z "
         id="path3463" />
    </marker>
    <marker
       inkscape:stockid="Arrow1Lend"
       orient="auto"
       refY="0.0"
       refX="0.0"
       id="Arrow1Lend"
       style="overflow:visible;"
       inkscape:isstock="true"
       inkscape:collect="always">
      <path
         id="path3056"
         d="M 0.0,0.0 L 5.0,-5.0 L -12.5,0.0 L 5.0,5.0 L 0.0,0.0 z "
         style="fill-rule:evenodd;stroke:#000000;stroke-width:1pt;stroke-opacity:1;fill:#000000;fill-opacity:1"
         transform="scale(0.8) rotate(180) translate(12.5,0)" />
    </marker>
    <linearGradient
       inkscape:collect="always"
       id="linearGradient886">
      <stop
         style="stop-color:#000000;stop-opacity:1;"
         offset="0"
         id="stop882" />
      <stop
         style="stop-color:#000000;stop-opacity:0;"
         offset="1"
         id="stop884" />
    </linearGradient>
    <linearGradient
       inkscape:collect="always"
       id="linearGradient870">
      <stop
         style="stop-color:#000000;stop-opacity:1;"
         offset="0"
         id="stop866" />
      <stop
         style="stop-color:#000000;stop-opacity:0;"
         offset="1"
         id="stop868" />
    </linearGradient>
    <linearGradient
       inkscape:collect="always"
       id="linearGradient840">
      <stop
         style="stop-color:#000000;stop-opacity:1;"
         offset="0"
         id="stop836" />
      <stop
         style="stop-color:#000000;stop-opacity:0;"
         offset="1"
         id="stop838" />
    </linearGradient>
    <radialGradient
       inkscape:collect="always"
       xlink:href="#linearGradient840"
       id="radialGradient842"
       cx="48.220312"
       cy="144.0657"
       fx="48.220312"
       fy="144.0657"
       r="2.976557"
       gradientTransform="matrix(1,0,0,9.5274539,0,-1228.5136)"
       gradientUnits="userSpaceOnUse" />
    <radialGradient
       inkscape:collect="always"
       xlink:href="#linearGradient840"
       id="radialGradient846"
       gradientUnits="userSpaceOnUse"
       gradientTransform="matrix(1,0,0,9.5274539,11.112501,-1228.5136)"
       cx="48.220312"
       cy="144.0657"
       fx="48.220312"
       fy="144.0657"
       r="2.976557" />
    <radialGradient
       inkscape:collect="always"
       xlink:href="#linearGradient840"
       id="radialGradient854"
       gradientUnits="userSpaceOnUse"
       gradientTransform="matrix(1,0,0,9.5274539,30.162513,-1228.5136)"
       cx="48.220312"
       cy="144.0657"
       fx="48.220312"
       fy="144.0657"
       r="2.976557" />
    <radialGradient
       inkscape:collect="always"
       xlink:href="#linearGradient840"
       id="radialGradient858"
       gradientUnits="userSpaceOnUse"
       gradientTransform="matrix(1,0,0,9.5274539,39.687519,-1228.5136)"
       cx="48.220312"
       cy="144.0657"
       fx="48.220312"
       fy="144.0657"
       r="2.976557" />
    <radialGradient
       inkscape:collect="always"
       xlink:href="#linearGradient840"
       id="radialGradient862"
       gradientUnits="userSpaceOnUse"
       gradientTransform="matrix(1,0,0,9.5274539,-12.170835,-1228.5136)"
       cx="48.220312"
       cy="144.0657"
       fx="48.220312"
       fy="144.0657"
       r="2.976557" />
    <linearGradient
       inkscape:collect="always"
       xlink:href="#linearGradient870"
       id="linearGradient872"
       x1="22.62186"
       y1="172.38125"
       x2="99.218686"
       y2="172.38125"
       gradientUnits="userSpaceOnUse" />
    <linearGradient
       inkscape:collect="always"
       xlink:href="#linearGradient886"
       id="linearGradient888"
       x1="22.62186"
       y1="172.38125"
       x2="99.218686"
       y2="172.38125"
       gradientUnits="userSpaceOnUse" />
    <linearGradient
       inkscape:collect="always"
       xlink:href="#linearGradient870"
       id="linearGradient892"
       gradientUnits="userSpaceOnUse"
       x1="22.62186"
       y1="172.38125"
       x2="99.218686"
       y2="172.38125"
       gradientTransform="translate(0,-44.450022)" />
    <linearGradient
       inkscape:collect="always"
       xlink:href="#linearGradient886"
       id="linearGradient894"
       gradientUnits="userSpaceOnUse"
       x1="22.62186"
       y1="172.38125"
       x2="99.218686"
       y2="172.38125"
       gradientTransform="translate(0,-44.450022)" />
    <linearGradient
       inkscape:collect="always"
       xlink:href="#linearGradient870"
       id="linearGradient898"
       gradientUnits="userSpaceOnUse"
       gradientTransform="translate(6.3500003,-56.620863)"
       x1="22.62186"
       y1="172.38125"
       x2="99.218686"
       y2="172.38125" />
    <linearGradient
       inkscape:collect="always"
       xlink:href="#linearGradient886"
       id="linearGradient900"
       gradientUnits="userSpaceOnUse"
       gradientTransform="translate(6.3500003,-56.620863)"
       x1="22.62186"
       y1="172.38125"
       x2="99.218686"
       y2="172.38125" />
    <linearGradient
       inkscape:collect="always"
       xlink:href="#linearGradient870"
       id="linearGradient904"
       gradientUnits="userSpaceOnUse"
       gradientTransform="translate(6.3500003,-15.345837)"
       x1="22.62186"
       y1="172.38125"
       x2="99.218686"
       y2="172.38125" />
    <linearGradient
       inkscape:collect="always"
       xlink:href="#linearGradient886"
       id="linearGradient906"
       gradientUnits="userSpaceOnUse"
       gradientTransform="translate(6.3500003,-15.345837)"
       x1="22.62186"
       y1="172.38125"
       x2="99.218686"
       y2="172.38125" />
    <radialGradient
       r="2.976557"
       fy="144.0657"
       fx="48.220312"
       cy="144.0657"
       cx="48.220312"
       gradientTransform="matrix(1,0,0,9.5274539,48.683358,-1228.5136)"
       gradientUnits="userSpaceOnUse"
       id="radialGradient1031"
       xlink:href="#linearGradient840"
       inkscape:collect="always" />
  </defs>
  <metadata
     id="metadata5">
    <rdf:RDF>
      <cc:Work
         rdf:about="">
        <dc:format>image/svg+xml</dc:format>
        <dc:type
           rdf:resource="http://purl.org/dc/dcmitype/StillImage" />
        <dc:title />
      </cc:Work>
    </rdf:RDF>
  </metadata>
  <g
     inkscape:groupmode="layer"
     id="layer2"
     inkscape:label="Layer 2">
    <path
       inkscape:connector-curvature="0"
       id="path902"
       d="M 28.971864,157.03532 H 105.56872"
       style="fill:url(#linearGradient904);fill-opacity:1;stroke:url(#linearGradient906);stroke-width:0.26499999;stroke-linecap:butt;stroke-linejoin:miter;stroke-miterlimit:4;stroke-dasharray:none;stroke-opacity:0.19523812;opacity:0.672" />
  </g>
  <g
     inkscape:label="Layer 1"
     inkscape:groupmode="layer"
     id="layer1">
    <path
       style="fill:url(#radialGradient842);stroke:#000000;stroke-width:0.065;stroke-linecap:butt;stroke-linejoin:miter;stroke-opacity:1;fill-opacity:1;opacity:0.3;stroke-miterlimit:4;stroke-dasharray:none"
       d="m 45.772916,127.66666 -0.258322,29.10423 -0.138553,15.61036 5.291667,-15.21354 0.396875,-41.40729 z"
       id="path834"
       inkscape:connector-curvature="0"
       sodipodi:nodetypes="cccccc" />
    <path
       sodipodi:nodetypes="cccccc"
       inkscape:connector-curvature="0"
       id="path844"
       d="m 56.885423,127.66666 -0.258322,29.10423 -0.138553,15.61036 5.291667,-15.21354 0.396875,-41.40729 z"
       style="opacity:0.3;fill:url(#radialGradient846);fill-opacity:1;stroke:#000000;stroke-width:0.065;stroke-linecap:butt;stroke-linejoin:miter;stroke-miterlimit:4;stroke-dasharray:none;stroke-opacity:1" />
    <path
       sodipodi:nodetypes="cccccc"
       inkscape:connector-curvature="0"
       id="path852"
       d="m 75.935435,127.66666 -0.258322,29.10423 -0.138553,15.61036 5.291667,-15.21354 0.396875,-41.40729 z"
       style="opacity:0.3;fill:url(#radialGradient854);fill-opacity:1;stroke:#000000;stroke-width:0.065;stroke-linecap:butt;stroke-linejoin:miter;stroke-miterlimit:4;stroke-dasharray:none;stroke-opacity:1" />
    <path
       style="opacity:0.3;fill:url(#radialGradient858);fill-opacity:1;stroke:#000000;stroke-width:0.065;stroke-linecap:butt;stroke-linejoin:miter;stroke-miterlimit:4;stroke-dasharray:none;stroke-opacity:1"
       d="m 85.460441,127.66666 -0.258322,29.10423 -0.138553,15.61036 5.291667,-15.21354 0.396875,-41.40729 z"
       id="path856"
       inkscape:connector-curvature="0"
       sodipodi:nodetypes="cccccc" />
    <path
       sodipodi:nodetypes="cccccc"
       inkscape:connector-curvature="0"
       id="path860"
       d="m 33.602075,127.66666 -0.258322,29.10423 -0.138553,15.61036 5.291667,-15.21354 0.396875,-41.40729 z"
       style="opacity:0.3;fill:url(#radialGradient862);fill-opacity:1;stroke:#000000;stroke-width:0.065;stroke-linecap:butt;stroke-linejoin:miter;stroke-miterlimit:4;stroke-dasharray:none;stroke-opacity:1" />
    <path
       style="fill:url(#linearGradient872);stroke:url(#linearGradient888);stroke-width:0.265;stroke-linecap:butt;stroke-linejoin:miter;stroke-opacity:0.1952381;fill-opacity:1;stroke-miterlimit:4;stroke-dasharray:none"
       d="M 22.62186,172.38125 H 99.218686"
       id="path864"
       inkscape:connector-curvature="0" />
    <path
       inkscape:connector-curvature="0"
       id="path890"
       d="M 22.62186,127.93097 H 99.218686"
       style="fill:url(#linearGradient892);fill-opacity:1;stroke:url(#linearGradient894);stroke-width:0.26499999;stroke-linecap:butt;stroke-linejoin:miter;stroke-miterlimit:4;stroke-dasharray:none;stroke-opacity:0.19523812" />
    <path
       style="fill:url(#linearGradient898);fill-opacity:1;stroke:url(#linearGradient900);stroke-width:0.26499999;stroke-linecap:butt;stroke-linejoin:miter;stroke-miterlimit:4;stroke-dasharray:none;stroke-opacity:0.19523812"
       d="M 28.971864,115.76006 H 105.56872"
       id="path896"
       inkscape:connector-curvature="0" />
    <text
       xml:space="preserve"
       style="font-style:normal;font-variant:normal;font-weight:normal;font-stretch:normal;font-size:7.05555534px;line-height:0.25;font-family:'.Apple Color Emoji UI';-inkscape-font-specification:'.Apple Color Emoji UI';letter-spacing:0px;word-spacing:0px;fill:#000000;fill-opacity:1;stroke:none;stroke-width:0.26458332"
       x="65.352081"
       y="145.26146"
       id="text912"><tspan
         sodipodi:role="line"
         id="tspan910"
         x="65.352081"
         y="145.26146"
         style="stroke-width:0.26458332">...</tspan></text>
    <text
       id="text916"
       y="145.26146"
       x="100.27708"
       style="font-style:normal;font-variant:normal;font-weight:normal;font-stretch:normal;font-size:7.05555534px;line-height:0.25;font-family:'.Apple Color Emoji UI';-inkscape-font-specification:'.Apple Color Emoji UI';letter-spacing:0px;word-spacing:0px;fill:#000000;fill-opacity:1;stroke:none;stroke-width:0.26458332"
       xml:space="preserve"><tspan
         style="stroke-width:0.26458332"
         y="145.26146"
         x="100.27708"
         id="tspan914"
         sodipodi:role="line">...</tspan></text>
    <path
       style="fill:none;stroke:#000000;stroke-width:0.26458332px;stroke-linecap:butt;stroke-linejoin:miter;stroke-opacity:1"
       d="M 22.62186,172.38125 H 33.2052 l 0.396875,-44.71459 5.291667,-11.90624 -0.396875,41.40729 -5.291667,15.21354 5.291667,-15.21354 -9.525003,-0.13239 v -41.27526 l 9.921878,2.6e-4 -5.291667,11.90624 -10.980215,0.26431 6.350004,-12.17091 -6.350004,12.17091 z"
       id="path918"
       inkscape:connector-curvature="0" />
    <g
       transform="matrix(0.3952381,0,0,0.38818959,-71.101026,123.39567)"
       ns0:text="$$i$$"
       ns0:preamble=""
       id="g975">
      <defs
         id="defs968">
        <g
           id="g966">
          <symbol
             style="overflow:visible"
             overflow="visible"
             id="textext-3b24eb03-0">
            <path
               inkscape:connector-curvature="0"
               style="stroke:none"
               d=""
               id="path960" />
          </symbol>
          <symbol
             style="overflow:visible"
             overflow="visible"
             id="textext-3b24eb03-1">
            <path
               inkscape:connector-curvature="0"
               style="stroke:none"
               d="m 2.828125,-6.234375 c 0,-0.203125 -0.140625,-0.359375 -0.359375,-0.359375 -0.28125,0 -0.546875,0.265625 -0.546875,0.53125 0,0.1875 0.140625,0.359375 0.375,0.359375 0.234375,0 0.53125,-0.234375 0.53125,-0.53125 z m -0.75,3.75 c 0.109375,-0.28125 0.109375,-0.3125 0.21875,-0.578125 0.078125,-0.203125 0.125,-0.34375 0.125,-0.53125 0,-0.4375 -0.3125,-0.8125 -0.8125,-0.8125 -0.9375,0 -1.3125,1.453125 -1.3125,1.53125 0,0.109375 0.09375,0.109375 0.109375,0.109375 0.109375,0 0.109375,-0.03125 0.15625,-0.1875 0.28125,-0.9375 0.671875,-1.234375 1.015625,-1.234375 0.078125,0 0.25,0 0.25,0.3125 0,0.21875 -0.078125,0.421875 -0.109375,0.53125 -0.078125,0.25 -0.53125,1.40625 -0.6875,1.84375 -0.109375,0.25 -0.234375,0.578125 -0.234375,0.796875 0,0.46875 0.34375,0.8125 0.8125,0.8125 0.9375,0 1.3125,-1.4375 1.3125,-1.53125 0,-0.109375 -0.09375,-0.109375 -0.125,-0.109375 -0.09375,0 -0.09375,0.03125 -0.140625,0.1875 -0.1875,0.625 -0.515625,1.234375 -1.015625,1.234375 -0.171875,0 -0.25,-0.09375 -0.25,-0.328125 0,-0.25 0.0625,-0.390625 0.296875,-1 z m 0,0"
               id="path963" />
          </symbol>
        </g>
      </defs>
      <g
         id="textext-3b24eb03-2">
        <g
           style="fill:#000000;fill-opacity:1"
           id="g972">
          <use
             height="100%"
             width="100%"
             xlink:href="#textext-3b24eb03-1"
             x="393.57199"
             y="134.765"
             id="use970" />
        </g>
      </g>
    </g>
    <path
       sodipodi:nodetypes="cccccc"
       inkscape:connector-curvature="0"
       id="path1029"
       d="m 94.45628,127.66666 -0.258322,29.10423 -0.138553,15.61036 5.291667,-15.21354 0.396875,-41.40729 z"
       style="opacity:0.3;fill:url(#radialGradient1031);fill-opacity:1;stroke:#000000;stroke-width:0.065;stroke-linecap:butt;stroke-linejoin:miter;stroke-miterlimit:4;stroke-dasharray:none;stroke-opacity:1" />
    <g
       id="g1137"
       transform="matrix(0.37380102,0,0,0.32947759,-53.122902,131.04484)"
       ns0:preamble=""
       ns0:text="$$i+1$$">
      <defs
         id="defs1122">
        <g
           id="g1120">
          <symbol
             id="textext-59248aea-0"
             overflow="visible"
             style="overflow:visible">
            <path
               id="path1105"
               d=""
               style="stroke:none"
               inkscape:connector-curvature="0" />
          </symbol>
          <symbol
             id="textext-59248aea-1"
             overflow="visible"
             style="overflow:visible">
            <path
               id="path1108"
               d="m 2.828125,-6.234375 c 0,-0.203125 -0.140625,-0.359375 -0.359375,-0.359375 -0.28125,0 -0.546875,0.265625 -0.546875,0.53125 0,0.1875 0.140625,0.359375 0.375,0.359375 0.234375,0 0.53125,-0.234375 0.53125,-0.53125 z m -0.75,3.75 c 0.109375,-0.28125 0.109375,-0.3125 0.21875,-0.578125 0.078125,-0.203125 0.125,-0.34375 0.125,-0.53125 0,-0.4375 -0.3125,-0.8125 -0.8125,-0.8125 -0.9375,0 -1.3125,1.453125 -1.3125,1.53125 0,0.109375 0.09375,0.109375 0.109375,0.109375 0.109375,0 0.109375,-0.03125 0.15625,-0.1875 0.28125,-0.9375 0.671875,-1.234375 1.015625,-1.234375 0.078125,0 0.25,0 0.25,0.3125 0,0.21875 -0.078125,0.421875 -0.109375,0.53125 -0.078125,0.25 -0.53125,1.40625 -0.6875,1.84375 -0.109375,0.25 -0.234375,0.578125 -0.234375,0.796875 0,0.46875 0.34375,0.8125 0.8125,0.8125 0.9375,0 1.3125,-1.4375 1.3125,-1.53125 0,-0.109375 -0.09375,-0.109375 -0.125,-0.109375 -0.09375,0 -0.09375,0.03125 -0.140625,0.1875 -0.1875,0.625 -0.515625,1.234375 -1.015625,1.234375 -0.171875,0 -0.25,-0.09375 -0.25,-0.328125 0,-0.25 0.0625,-0.390625 0.296875,-1 z m 0,0"
               style="stroke:none"
               inkscape:connector-curvature="0" />
          </symbol>
          <symbol
             id="textext-59248aea-2"
             overflow="visible"
             style="overflow:visible">
            <path
               id="path1111"
               d=""
               style="stroke:none"
               inkscape:connector-curvature="0" />
          </symbol>
          <symbol
             id="textext-59248aea-3"
             overflow="visible"
             style="overflow:visible">
            <path
               id="path1114"
               d="m 4.078125,-2.296875 h 2.78125 C 7,-2.296875 7.1875,-2.296875 7.1875,-2.5 7.1875,-2.6875 7,-2.6875 6.859375,-2.6875 h -2.78125 v -2.796875 c 0,-0.140625 0,-0.328125 -0.203125,-0.328125 -0.203125,0 -0.203125,0.1875 -0.203125,0.328125 V -2.6875 h -2.78125 c -0.140625,0 -0.328125,0 -0.328125,0.1875 0,0.203125 0.1875,0.203125 0.328125,0.203125 h 2.78125 V 0.5 c 0,0.140625 0,0.328125 0.203125,0.328125 0.203125,0 0.203125,-0.1875 0.203125,-0.328125 z m 0,0"
               style="stroke:none"
               inkscape:connector-curvature="0" />
          </symbol>
          <symbol
             id="textext-59248aea-4"
             overflow="visible"
             style="overflow:visible">
            <path
               id="path1117"
               d="m 2.9375,-6.375 c 0,-0.25 0,-0.265625 -0.234375,-0.265625 C 2.078125,-6 1.203125,-6 0.890625,-6 v 0.3125 c 0.203125,0 0.78125,0 1.296875,-0.265625 v 5.171875 c 0,0.359375 -0.03125,0.46875 -0.921875,0.46875 h -0.3125 V 0 c 0.34375,-0.03125 1.203125,-0.03125 1.609375,-0.03125 0.390625,0 1.265625,0 1.609375,0.03125 v -0.3125 h -0.3125 c -0.90625,0 -0.921875,-0.109375 -0.921875,-0.46875 z m 0,0"
               style="stroke:none"
               inkscape:connector-curvature="0" />
          </symbol>
        </g>
      </defs>
      <g
         id="textext-59248aea-5">
        <g
           id="g1126"
           style="fill:#000000;fill-opacity:1">
          <use
             id="use1124"
             y="134.765"
             x="384.99301"
             xlink:href="#textext-59248aea-1"
             width="100%"
             height="100%" />
        </g>
        <g
           id="g1130"
           style="fill:#000000;fill-opacity:1">
          <use
             id="use1128"
             y="134.765"
             x="390.63901"
             xlink:href="#textext-59248aea-3"
             width="100%"
             height="100%" />
        </g>
        <g
           id="g1134"
           style="fill:#000000;fill-opacity:1">
          <use
             id="use1132"
             y="134.765"
             x="400.59961"
             xlink:href="#textext-59248aea-4"
             width="100%"
             height="100%" />
        </g>
      </g>
    </g>
    <g
       ns0:text="$$i-1$$"
       ns0:preamble=""
       transform="matrix(0.37380102,0,0,0.32947759,-71.643735,131.04484)"
       id="g1360">
      <defs
         id="defs1345">
        <g
           id="g1343">
          <symbol
             overflow="visible"
             id="textext-1a968486-0">
            <path
               style="stroke:none;"
               d=""
               id="path1325" />
          </symbol>
          <symbol
             overflow="visible"
             id="textext-1a968486-1">
            <path
               style="stroke:none;"
               d="M 2.828125 -6.234375 C 2.828125 -6.4375 2.6875 -6.59375 2.46875 -6.59375 C 2.1875 -6.59375 1.921875 -6.328125 1.921875 -6.0625 C 1.921875 -5.875 2.0625 -5.703125 2.296875 -5.703125 C 2.53125 -5.703125 2.828125 -5.9375 2.828125 -6.234375 Z M 2.078125 -2.484375 C 2.1875 -2.765625 2.1875 -2.796875 2.296875 -3.0625 C 2.375 -3.265625 2.421875 -3.40625 2.421875 -3.59375 C 2.421875 -4.03125 2.109375 -4.40625 1.609375 -4.40625 C 0.671875 -4.40625 0.296875 -2.953125 0.296875 -2.875 C 0.296875 -2.765625 0.390625 -2.765625 0.40625 -2.765625 C 0.515625 -2.765625 0.515625 -2.796875 0.5625 -2.953125 C 0.84375 -3.890625 1.234375 -4.1875 1.578125 -4.1875 C 1.65625 -4.1875 1.828125 -4.1875 1.828125 -3.875 C 1.828125 -3.65625 1.75 -3.453125 1.71875 -3.34375 C 1.640625 -3.09375 1.1875 -1.9375 1.03125 -1.5 C 0.921875 -1.25 0.796875 -0.921875 0.796875 -0.703125 C 0.796875 -0.234375 1.140625 0.109375 1.609375 0.109375 C 2.546875 0.109375 2.921875 -1.328125 2.921875 -1.421875 C 2.921875 -1.53125 2.828125 -1.53125 2.796875 -1.53125 C 2.703125 -1.53125 2.703125 -1.5 2.65625 -1.34375 C 2.46875 -0.71875 2.140625 -0.109375 1.640625 -0.109375 C 1.46875 -0.109375 1.390625 -0.203125 1.390625 -0.4375 C 1.390625 -0.6875 1.453125 -0.828125 1.6875 -1.4375 Z M 2.078125 -2.484375 "
               id="path1328" />
          </symbol>
          <symbol
             overflow="visible"
             id="textext-1a968486-2">
            <path
               style="stroke:none;"
               d=""
               id="path1331" />
          </symbol>
          <symbol
             overflow="visible"
             id="textext-1a968486-3">
            <path
               style="stroke:none;"
               d="M 6.5625 -2.296875 C 6.734375 -2.296875 6.921875 -2.296875 6.921875 -2.5 C 6.921875 -2.6875 6.734375 -2.6875 6.5625 -2.6875 L 1.171875 -2.6875 C 1 -2.6875 0.828125 -2.6875 0.828125 -2.5 C 0.828125 -2.296875 1 -2.296875 1.171875 -2.296875 Z M 6.5625 -2.296875 "
               id="path1334" />
          </symbol>
          <symbol
             overflow="visible"
             id="textext-1a968486-4">
            <path
               style="stroke:none;"
               d=""
               id="path1337" />
          </symbol>
          <symbol
             overflow="visible"
             id="textext-1a968486-5">
            <path
               style="stroke:none;"
               d="M 2.9375 -6.375 C 2.9375 -6.625 2.9375 -6.640625 2.703125 -6.640625 C 2.078125 -6 1.203125 -6 0.890625 -6 L 0.890625 -5.6875 C 1.09375 -5.6875 1.671875 -5.6875 2.1875 -5.953125 L 2.1875 -0.78125 C 2.1875 -0.421875 2.15625 -0.3125 1.265625 -0.3125 L 0.953125 -0.3125 L 0.953125 0 C 1.296875 -0.03125 2.15625 -0.03125 2.5625 -0.03125 C 2.953125 -0.03125 3.828125 -0.03125 4.171875 0 L 4.171875 -0.3125 L 3.859375 -0.3125 C 2.953125 -0.3125 2.9375 -0.421875 2.9375 -0.78125 Z M 2.9375 -6.375 "
               id="path1340" />
          </symbol>
        </g>
      </defs>
      <g
         id="textext-1a968486-6">
        <g
           style="fill:rgb(0%,0%,0%);fill-opacity:1;"
           id="g1349">
          <use
             xlink:href="#textext-1a968486-1"
             x="384.993"
             y="134.765"
             id="use1347" />
        </g>
        <g
           style="fill:rgb(0%,0%,0%);fill-opacity:1;"
           id="g1353">
          <use
             xlink:href="#textext-1a968486-3"
             x="390.639"
             y="134.765"
             id="use1351" />
        </g>
        <g
           style="fill:rgb(0%,0%,0%);fill-opacity:1;"
           id="g1357">
          <use
             xlink:href="#textext-1a968486-5"
             x="400.601"
             y="134.765"
             id="use1355" />
        </g>
      </g>
    </g>
    <g
       id="g1597"
       transform="matrix(0.3952381,0,0,0.38818959,-74.540609,113.47379)"
       ns0:preamble=""
       ns0:text="$$n_{i}$$">
      <defs
         id="defs1586">
        <g
           id="g1584">
          <symbol
             id="textext-cc272fa7-0"
             overflow="visible">
            <path
               id="path1572"
               d=""
               style="stroke:none;" />
          </symbol>
          <symbol
             id="textext-cc272fa7-1"
             overflow="visible">
            <path
               id="path1575"
               d="M 0.875 -0.59375 C 0.84375 -0.4375 0.78125 -0.203125 0.78125 -0.15625 C 0.78125 0.015625 0.921875 0.109375 1.078125 0.109375 C 1.203125 0.109375 1.375 0.03125 1.453125 -0.171875 C 1.453125 -0.1875 1.578125 -0.65625 1.640625 -0.90625 L 1.859375 -1.796875 C 1.90625 -2.03125 1.96875 -2.25 2.03125 -2.46875 C 2.0625 -2.640625 2.140625 -2.9375 2.15625 -2.96875 C 2.296875 -3.28125 2.828125 -4.1875 3.78125 -4.1875 C 4.234375 -4.1875 4.3125 -3.8125 4.3125 -3.484375 C 4.3125 -2.875 3.828125 -1.59375 3.671875 -1.171875 C 3.578125 -0.9375 3.5625 -0.8125 3.5625 -0.703125 C 3.5625 -0.234375 3.921875 0.109375 4.390625 0.109375 C 5.328125 0.109375 5.6875 -1.34375 5.6875 -1.421875 C 5.6875 -1.53125 5.609375 -1.53125 5.578125 -1.53125 C 5.46875 -1.53125 5.46875 -1.5 5.421875 -1.34375 C 5.21875 -0.671875 4.890625 -0.109375 4.40625 -0.109375 C 4.234375 -0.109375 4.171875 -0.203125 4.171875 -0.4375 C 4.171875 -0.6875 4.25 -0.921875 4.34375 -1.140625 C 4.53125 -1.671875 4.953125 -2.765625 4.953125 -3.34375 C 4.953125 -4 4.53125 -4.40625 3.8125 -4.40625 C 2.90625 -4.40625 2.421875 -3.765625 2.25 -3.53125 C 2.203125 -4.09375 1.796875 -4.40625 1.328125 -4.40625 C 0.875 -4.40625 0.6875 -4.015625 0.59375 -3.84375 C 0.421875 -3.5 0.296875 -2.90625 0.296875 -2.875 C 0.296875 -2.765625 0.390625 -2.765625 0.40625 -2.765625 C 0.515625 -2.765625 0.515625 -2.78125 0.578125 -3 C 0.75 -3.703125 0.953125 -4.1875 1.3125 -4.1875 C 1.5 -4.1875 1.609375 -4.0625 1.609375 -3.734375 C 1.609375 -3.515625 1.578125 -3.40625 1.453125 -2.890625 Z M 0.875 -0.59375 "
               style="stroke:none;" />
          </symbol>
          <symbol
             id="textext-cc272fa7-2"
             overflow="visible">
            <path
               id="path1578"
               d=""
               style="stroke:none;" />
          </symbol>
          <symbol
             id="textext-cc272fa7-3"
             overflow="visible">
            <path
               id="path1581"
               d="M 2.265625 -4.359375 C 2.265625 -4.46875 2.171875 -4.625 1.984375 -4.625 C 1.796875 -4.625 1.59375 -4.4375 1.59375 -4.234375 C 1.59375 -4.125 1.671875 -3.96875 1.875 -3.96875 C 2.0625 -3.96875 2.265625 -4.171875 2.265625 -4.359375 Z M 0.84375 -0.8125 C 0.8125 -0.71875 0.78125 -0.640625 0.78125 -0.515625 C 0.78125 -0.1875 1.046875 0.0625 1.4375 0.0625 C 2.125 0.0625 2.4375 -0.890625 2.4375 -1 C 2.4375 -1.09375 2.34375 -1.09375 2.328125 -1.09375 C 2.234375 -1.09375 2.21875 -1.046875 2.1875 -0.96875 C 2.03125 -0.40625 1.734375 -0.125 1.453125 -0.125 C 1.3125 -0.125 1.28125 -0.21875 1.28125 -0.375 C 1.28125 -0.53125 1.328125 -0.65625 1.390625 -0.8125 C 1.46875 -1 1.546875 -1.1875 1.609375 -1.375 C 1.671875 -1.546875 1.9375 -2.171875 1.953125 -2.265625 C 1.984375 -2.328125 2 -2.40625 2 -2.484375 C 2 -2.8125 1.71875 -3.078125 1.34375 -3.078125 C 0.640625 -3.078125 0.328125 -2.125 0.328125 -2 C 0.328125 -1.921875 0.421875 -1.921875 0.453125 -1.921875 C 0.546875 -1.921875 0.546875 -1.953125 0.578125 -2.03125 C 0.75 -2.625 1.0625 -2.875 1.3125 -2.875 C 1.421875 -2.875 1.484375 -2.828125 1.484375 -2.640625 C 1.484375 -2.46875 1.453125 -2.375 1.28125 -1.9375 Z M 0.84375 -0.8125 "
               style="stroke:none;" />
          </symbol>
        </g>
      </defs>
      <g
         id="textext-cc272fa7-4">
        <g
           id="g1590"
           style="fill:rgb(0%,0%,0%);fill-opacity:1;">
          <use
             id="use1588"
             y="134.765"
             x="390.639"
             xlink:href="#textext-cc272fa7-1" />
        </g>
        <g
           id="g1594"
           style="fill:rgb(0%,0%,0%);fill-opacity:1;">
          <use
             id="use1592"
             y="136.259"
             x="396.619"
             xlink:href="#textext-cc272fa7-3" />
        </g>
      </g>
    </g>
    <g
       ns0:text="$$n_{i+1}$$"
       ns0:preamble=""
       transform="matrix(0.3952381,0,0,0.38818959,-65.809359,113.47379)"
       id="g1893">
      <defs
         id="defs1876">
        <g
           id="g1874">
          <symbol
             overflow="visible"
             id="textext-d7552ff8-0">
            <path
               style="stroke:none;"
               d=""
               id="path1853" />
          </symbol>
          <symbol
             overflow="visible"
             id="textext-d7552ff8-1">
            <path
               style="stroke:none;"
               d="M 0.875 -0.59375 C 0.84375 -0.4375 0.78125 -0.203125 0.78125 -0.15625 C 0.78125 0.015625 0.921875 0.109375 1.078125 0.109375 C 1.203125 0.109375 1.375 0.03125 1.453125 -0.171875 C 1.453125 -0.1875 1.578125 -0.65625 1.640625 -0.90625 L 1.859375 -1.796875 C 1.90625 -2.03125 1.96875 -2.25 2.03125 -2.46875 C 2.0625 -2.640625 2.140625 -2.9375 2.15625 -2.96875 C 2.296875 -3.28125 2.828125 -4.1875 3.78125 -4.1875 C 4.234375 -4.1875 4.3125 -3.8125 4.3125 -3.484375 C 4.3125 -2.875 3.828125 -1.59375 3.671875 -1.171875 C 3.578125 -0.9375 3.5625 -0.8125 3.5625 -0.703125 C 3.5625 -0.234375 3.921875 0.109375 4.390625 0.109375 C 5.328125 0.109375 5.6875 -1.34375 5.6875 -1.421875 C 5.6875 -1.53125 5.609375 -1.53125 5.578125 -1.53125 C 5.46875 -1.53125 5.46875 -1.5 5.421875 -1.34375 C 5.21875 -0.671875 4.890625 -0.109375 4.40625 -0.109375 C 4.234375 -0.109375 4.171875 -0.203125 4.171875 -0.4375 C 4.171875 -0.6875 4.25 -0.921875 4.34375 -1.140625 C 4.53125 -1.671875 4.953125 -2.765625 4.953125 -3.34375 C 4.953125 -4 4.53125 -4.40625 3.8125 -4.40625 C 2.90625 -4.40625 2.421875 -3.765625 2.25 -3.53125 C 2.203125 -4.09375 1.796875 -4.40625 1.328125 -4.40625 C 0.875 -4.40625 0.6875 -4.015625 0.59375 -3.84375 C 0.421875 -3.5 0.296875 -2.90625 0.296875 -2.875 C 0.296875 -2.765625 0.390625 -2.765625 0.40625 -2.765625 C 0.515625 -2.765625 0.515625 -2.78125 0.578125 -3 C 0.75 -3.703125 0.953125 -4.1875 1.3125 -4.1875 C 1.5 -4.1875 1.609375 -4.0625 1.609375 -3.734375 C 1.609375 -3.515625 1.578125 -3.40625 1.453125 -2.890625 Z M 0.875 -0.59375 "
               id="path1856" />
          </symbol>
          <symbol
             overflow="visible"
             id="textext-d7552ff8-2">
            <path
               style="stroke:none;"
               d=""
               id="path1859" />
          </symbol>
          <symbol
             overflow="visible"
             id="textext-d7552ff8-3">
            <path
               style="stroke:none;"
               d="M 2.265625 -4.359375 C 2.265625 -4.46875 2.171875 -4.625 1.984375 -4.625 C 1.796875 -4.625 1.59375 -4.4375 1.59375 -4.234375 C 1.59375 -4.125 1.671875 -3.96875 1.875 -3.96875 C 2.0625 -3.96875 2.265625 -4.171875 2.265625 -4.359375 Z M 0.84375 -0.8125 C 0.8125 -0.71875 0.78125 -0.640625 0.78125 -0.515625 C 0.78125 -0.1875 1.046875 0.0625 1.4375 0.0625 C 2.125 0.0625 2.4375 -0.890625 2.4375 -1 C 2.4375 -1.09375 2.34375 -1.09375 2.328125 -1.09375 C 2.234375 -1.09375 2.21875 -1.046875 2.1875 -0.96875 C 2.03125 -0.40625 1.734375 -0.125 1.453125 -0.125 C 1.3125 -0.125 1.28125 -0.21875 1.28125 -0.375 C 1.28125 -0.53125 1.328125 -0.65625 1.390625 -0.8125 C 1.46875 -1 1.546875 -1.1875 1.609375 -1.375 C 1.671875 -1.546875 1.9375 -2.171875 1.953125 -2.265625 C 1.984375 -2.328125 2 -2.40625 2 -2.484375 C 2 -2.8125 1.71875 -3.078125 1.34375 -3.078125 C 0.640625 -3.078125 0.328125 -2.125 0.328125 -2 C 0.328125 -1.921875 0.421875 -1.921875 0.453125 -1.921875 C 0.546875 -1.921875 0.546875 -1.953125 0.578125 -2.03125 C 0.75 -2.625 1.0625 -2.875 1.3125 -2.875 C 1.421875 -2.875 1.484375 -2.828125 1.484375 -2.640625 C 1.484375 -2.46875 1.453125 -2.375 1.28125 -1.9375 Z M 0.84375 -0.8125 "
               id="path1862" />
          </symbol>
          <symbol
             overflow="visible"
             id="textext-d7552ff8-4">
            <path
               style="stroke:none;"
               d=""
               id="path1865" />
          </symbol>
          <symbol
             overflow="visible"
             id="textext-d7552ff8-5">
            <path
               style="stroke:none;"
               d="M 3.21875 -1.578125 L 5.359375 -1.578125 C 5.453125 -1.578125 5.609375 -1.578125 5.609375 -1.734375 C 5.609375 -1.921875 5.453125 -1.921875 5.359375 -1.921875 L 3.21875 -1.921875 L 3.21875 -4.0625 C 3.21875 -4.140625 3.21875 -4.3125 3.0625 -4.3125 C 2.890625 -4.3125 2.890625 -4.15625 2.890625 -4.0625 L 2.890625 -1.921875 L 0.75 -1.921875 C 0.65625 -1.921875 0.484375 -1.921875 0.484375 -1.75 C 0.484375 -1.578125 0.640625 -1.578125 0.75 -1.578125 L 2.890625 -1.578125 L 2.890625 0.5625 C 2.890625 0.65625 2.890625 0.828125 3.046875 0.828125 C 3.21875 0.828125 3.21875 0.65625 3.21875 0.5625 Z M 3.21875 -1.578125 "
               id="path1868" />
          </symbol>
          <symbol
             overflow="visible"
             id="textext-d7552ff8-6">
            <path
               style="stroke:none;"
               d="M 2.328125 -4.4375 C 2.328125 -4.625 2.328125 -4.625 2.125 -4.625 C 1.671875 -4.1875 1.046875 -4.1875 0.765625 -4.1875 L 0.765625 -3.9375 C 0.921875 -3.9375 1.390625 -3.9375 1.765625 -4.125 L 1.765625 -0.578125 C 1.765625 -0.34375 1.765625 -0.25 1.078125 -0.25 L 0.8125 -0.25 L 0.8125 0 C 0.9375 0 1.796875 -0.03125 2.046875 -0.03125 C 2.265625 -0.03125 3.140625 0 3.296875 0 L 3.296875 -0.25 L 3.03125 -0.25 C 2.328125 -0.25 2.328125 -0.34375 2.328125 -0.578125 Z M 2.328125 -4.4375 "
               id="path1871" />
          </symbol>
        </g>
      </defs>
      <g
         id="textext-d7552ff8-7">
        <g
           style="fill:rgb(0%,0%,0%);fill-opacity:1;"
           id="g1880">
          <use
             xlink:href="#textext-d7552ff8-1"
             x="385.596"
             y="134.765"
             id="use1878" />
        </g>
        <g
           style="fill:rgb(0%,0%,0%);fill-opacity:1;"
           id="g1884">
          <use
             xlink:href="#textext-d7552ff8-3"
             x="391.576"
             y="136.259"
             id="use1882" />
        </g>
        <g
           style="fill:rgb(0%,0%,0%);fill-opacity:1;"
           id="g1890">
          <use
             xlink:href="#textext-d7552ff8-5"
             x="394.394"
             y="136.259"
             id="use1886" />
          <use
             xlink:href="#textext-d7552ff8-6"
             x="400.510023"
             y="136.259"
             id="use1888" />
        </g>
      </g>
    </g>
    <g
       id="g2202"
       transform="matrix(0.3952381,0,0,0.38818959,-122.82707,123.26338)"
       ns0:preamble=""
       ns0:text="$$0$$">
      <defs
         id="defs2195">
        <g
           id="g2193">
          <symbol
             id="textext-9e0df4e1-0"
             overflow="visible">
            <path
               id="path2187"
               d=""
               style="stroke:none;" />
          </symbol>
          <symbol
             id="textext-9e0df4e1-1"
             overflow="visible">
            <path
               id="path2190"
               d="M 4.578125 -3.1875 C 4.578125 -3.984375 4.53125 -4.78125 4.1875 -5.515625 C 3.734375 -6.484375 2.90625 -6.640625 2.5 -6.640625 C 1.890625 -6.640625 1.171875 -6.375 0.75 -5.453125 C 0.4375 -4.765625 0.390625 -3.984375 0.390625 -3.1875 C 0.390625 -2.4375 0.421875 -1.546875 0.84375 -0.78125 C 1.265625 0.015625 2 0.21875 2.484375 0.21875 C 3.015625 0.21875 3.78125 0.015625 4.21875 -0.9375 C 4.53125 -1.625 4.578125 -2.40625 4.578125 -3.1875 Z M 2.484375 0 C 2.09375 0 1.5 -0.25 1.328125 -1.203125 C 1.21875 -1.796875 1.21875 -2.71875 1.21875 -3.3125 C 1.21875 -3.953125 1.21875 -4.609375 1.296875 -5.140625 C 1.484375 -6.328125 2.234375 -6.421875 2.484375 -6.421875 C 2.8125 -6.421875 3.46875 -6.234375 3.65625 -5.25 C 3.765625 -4.6875 3.765625 -3.9375 3.765625 -3.3125 C 3.765625 -2.5625 3.765625 -1.890625 3.65625 -1.25 C 3.5 -0.296875 2.9375 0 2.484375 0 Z M 2.484375 0 "
               style="stroke:none;" />
          </symbol>
        </g>
      </defs>
      <g
         id="textext-9e0df4e1-2">
        <g
           id="g2199"
           style="fill:rgb(0%,0%,0%);fill-opacity:1;">
          <use
             id="use2197"
             y="134.765"
             x="392.797"
             xlink:href="#textext-9e0df4e1-1" />
        </g>
      </g>
    </g>
    <g
       ns0:text="$$1$$"
       ns0:preamble=""
       transform="matrix(0.3952381,0,0,0.38818959,-110.78853,123.13109)"
       id="g2531">
      <defs
         id="defs2524">
        <g
           id="g2522">
          <symbol
             overflow="visible"
             id="textext-78b723a3-0">
            <path
               style="stroke:none;"
               d=""
               id="path2516" />
          </symbol>
          <symbol
             overflow="visible"
             id="textext-78b723a3-1">
            <path
               style="stroke:none;"
               d="M 2.9375 -6.375 C 2.9375 -6.625 2.9375 -6.640625 2.703125 -6.640625 C 2.078125 -6 1.203125 -6 0.890625 -6 L 0.890625 -5.6875 C 1.09375 -5.6875 1.671875 -5.6875 2.1875 -5.953125 L 2.1875 -0.78125 C 2.1875 -0.421875 2.15625 -0.3125 1.265625 -0.3125 L 0.953125 -0.3125 L 0.953125 0 C 1.296875 -0.03125 2.15625 -0.03125 2.5625 -0.03125 C 2.953125 -0.03125 3.828125 -0.03125 4.171875 0 L 4.171875 -0.3125 L 3.859375 -0.3125 C 2.953125 -0.3125 2.9375 -0.421875 2.9375 -0.78125 Z M 2.9375 -6.375 "
               id="path2519" />
          </symbol>
        </g>
      </defs>
      <g
         id="textext-78b723a3-2">
        <g
           style="fill:rgb(0%,0%,0%);fill-opacity:1;"
           id="g2528">
          <use
             xlink:href="#textext-78b723a3-1"
             x="392.797"
             y="134.765"
             id="use2526" />
        </g>
      </g>
    </g>
    <g
       id="g2880"
       transform="matrix(0.3952381,0,0,0.38818959,-99.656754,123.03755)"
       ns0:preamble=""
       ns0:text="$$2$$">
      <defs
         id="defs2873">
        <g
           id="g2871">
          <symbol
             id="textext-6ad26833-0"
             overflow="visible">
            <path
               id="path2865"
               d=""
               style="stroke:none;" />
          </symbol>
          <symbol
             id="textext-6ad26833-1"
             overflow="visible">
            <path
               id="path2868"
               d="M 1.265625 -0.765625 L 2.328125 -1.796875 C 3.875 -3.171875 4.46875 -3.703125 4.46875 -4.703125 C 4.46875 -5.84375 3.578125 -6.640625 2.359375 -6.640625 C 1.234375 -6.640625 0.5 -5.71875 0.5 -4.828125 C 0.5 -4.28125 1 -4.28125 1.03125 -4.28125 C 1.203125 -4.28125 1.546875 -4.390625 1.546875 -4.8125 C 1.546875 -5.0625 1.359375 -5.328125 1.015625 -5.328125 C 0.9375 -5.328125 0.921875 -5.328125 0.890625 -5.3125 C 1.109375 -5.96875 1.65625 -6.328125 2.234375 -6.328125 C 3.140625 -6.328125 3.5625 -5.515625 3.5625 -4.703125 C 3.5625 -3.90625 3.078125 -3.125 2.515625 -2.5 L 0.609375 -0.375 C 0.5 -0.265625 0.5 -0.234375 0.5 0 L 4.203125 0 L 4.46875 -1.734375 L 4.234375 -1.734375 C 4.171875 -1.4375 4.109375 -1 4 -0.84375 C 3.9375 -0.765625 3.28125 -0.765625 3.0625 -0.765625 Z M 1.265625 -0.765625 "
               style="stroke:none;" />
          </symbol>
        </g>
      </defs>
      <g
         id="textext-6ad26833-2">
        <g
           id="g2877"
           style="fill:rgb(0%,0%,0%);fill-opacity:1;">
          <use
             id="use2875"
             y="134.765"
             x="392.797"
             xlink:href="#textext-6ad26833-1" />
        </g>
      </g>
    </g>
    <path
       style="fill:none;stroke:#000000;stroke-width:0.26458332px;stroke-linecap:butt;stroke-linejoin:miter;stroke-opacity:1"
       d="m 22.62186,172.38125 6.350004,-15.34593"
       id="path3049"
       inkscape:connector-curvature="0" />
    <path
       style="fill:none;stroke:#000000;stroke-width:0.2625756;stroke-linecap:butt;stroke-linejoin:miter;stroke-miterlimit:4;stroke-dasharray:none;stroke-opacity:1;marker-end:url(#Arrow1Lend)"
       d="m 19.024675,149.19994 12.780398,0.18709"
       id="path3051"
       inkscape:connector-curvature="0"
       sodipodi:nodetypes="cc" />
    <path
       sodipodi:nodetypes="cc"
       inkscape:connector-curvature="0"
       id="path3461"
       d="m 18.694589,141.79156 13.110484,0.18709"
       style="fill:#d40000;stroke:#ff0000;stroke-width:0.26594484;stroke-linecap:butt;stroke-linejoin:miter;stroke-miterlimit:4;stroke-dasharray:none;stroke-opacity:1;marker-start:url(#marker4245)" />
    <path
       sodipodi:nodetypes="cc"
       inkscape:connector-curvature="0"
       id="path4045"
       d="m 36.567576,149.38703 12.780398,0.18709"
       style="fill:#008000;stroke:#008300;stroke-width:0.2625756;stroke-linecap:butt;stroke-linejoin:miter;stroke-miterlimit:4;stroke-dasharray:none;stroke-opacity:1;marker-end:url(#marker4051)" />
    <path
       style="fill:#0000ff;stroke:#0000ff;stroke-width:0.26594484;stroke-linecap:butt;stroke-linejoin:miter;stroke-miterlimit:4;stroke-dasharray:none;stroke-opacity:1;marker-start:url(#Arrow1Lstart)"
       d="m 36.23749,141.97865 13.110484,0.18709"
       id="path4047"
       inkscape:connector-curvature="0"
       sodipodi:nodetypes="cc" />
  </g>
</svg>
